<?xml version="1.0" encoding="UTF-8"?>
<svg id="Layer_2" data-name="Layer 2" xmlns="http://www.w3.org/2000/svg" viewBox="0 0 606.35 187.88">
  <g id="Layer_1-2" data-name="Layer 1">
    <g>
      <g>
        <path d="M175.34,125.08v-15.7h8.22v-55.81h-8.22v-15.7h38.24c8.39,0,14.78,2.16,19.18,6.48,4.4,4.32,6.6,9.72,6.6,16.19v1.5c0,4.98-1.39,8.97-4.17,11.96-2.78,2.99-6.29,5.07-10.53,6.23v2.24c4.24,1.08,7.74,3.18,10.53,6.29,2.78,3.11,4.17,7.12,4.17,12.02v1.49c0,6.56-2.2,12-6.6,16.32-4.4,4.32-10.8,6.48-19.18,6.48h-38.24ZM200.01,73.51h11.96c3.49,0,6.31-.75,8.47-2.24,2.16-1.5,3.24-3.94,3.24-7.35v-.75c0-3.4-1.08-5.85-3.24-7.35-2.16-1.5-4.98-2.24-8.47-2.24h-11.96v19.93ZM200.01,109.39h11.96c3.49,0,6.31-.77,8.47-2.31,2.16-1.54,3.24-4,3.24-7.41v-.75c0-3.4-1.08-5.87-3.24-7.41-2.16-1.54-4.98-2.3-8.47-2.3h-11.96v20.18Z"/>
        <path d="M251.83,150v-14.95h27.28c2.24,0,3.36-1.25,3.36-3.74v-15.2h-2.24c-2.74,7.14-8.64,10.71-17.69,10.71-4.07,0-7.77-.89-11.09-2.68-3.32-1.78-5.96-4.53-7.91-8.22-1.95-3.69-2.93-8.37-2.93-14.01v-38.62h15.7v35.38c0,4.32,1.06,7.72,3.18,10.21s5.21,3.74,9.28,3.74c4.73,0,8.2-1.51,10.4-4.55,2.2-3.03,3.3-7.16,3.3-12.39v-32.39h15.7v76.98c0,2.82-.89,5.15-2.68,6.98-1.79,1.83-4.09,2.74-6.91,2.74h-36.75Z"/>
        <path d="M328.07,125.08c-2.82,0-5.13-.91-6.91-2.74-1.79-1.83-2.68-4.15-2.68-6.98v-37.12h-18.31v-14.95h18.31v-25.41h15.7v25.41h22.3v14.95h-22.3v28.15c0,2.49,1.12,3.74,3.36,3.74h16.69v14.95h-26.16Z"/>
        <path d="M392.22,126.83c-6.15,0-11.58-1.31-16.32-3.92-4.73-2.62-8.43-6.37-11.09-11.27-2.66-4.9-3.99-10.79-3.99-17.69v-.75c0-6.31,1.41-11.83,4.24-16.57,2.82-4.73,6.58-8.43,11.27-11.09,4.69-2.66,9.9-3.99,15.63-3.99,5.31,0,9.88.91,13.7,2.74,3.82,1.83,6.95,4.19,9.4,7.1,2.45,2.91,4.28,6.08,5.48,9.53,1.2,3.45,1.81,6.79,1.81,10.03v8.35h-45.34c.17,3.66,1.7,6.66,4.61,9.03,2.91,2.37,6.35,3.55,10.34,3.55s6.91-.71,9.03-2.12c2.12-1.41,3.59-3.03,4.42-4.86l13.45,7.47c-.92,2.08-2.43,4.24-4.55,6.48-2.12,2.24-4.96,4.13-8.53,5.67-3.57,1.54-8.1,2.3-13.58,2.3ZM377.27,85.85h29.15c-.5-2.91-2.06-5.31-4.67-7.23-2.62-1.91-5.92-2.87-9.9-2.87s-7.12,1.02-9.65,3.05c-2.53,2.04-4.17,4.38-4.92,7.04Z"/>
        <path d="M444.66,125.08V53.58h-23.17v-15.7h62.78v15.7h-23.17v71.5h-16.44Z"/>
        <path d="M514.8,126.83c-6.15,0-11.58-1.31-16.32-3.92-4.73-2.62-8.43-6.37-11.09-11.27-2.66-4.9-3.99-10.79-3.99-17.69v-.75c0-6.31,1.41-11.83,4.24-16.57,2.82-4.73,6.58-8.43,11.27-11.09,4.69-2.66,9.9-3.99,15.63-3.99,5.31,0,9.88.91,13.7,2.74,3.82,1.83,6.95,4.19,9.4,7.1,2.45,2.91,4.28,6.08,5.48,9.53,1.2,3.45,1.81,6.79,1.81,10.03v8.35h-45.34c.17,3.66,1.7,6.66,4.61,9.03,2.91,2.37,6.35,3.55,10.34,3.55s6.91-.71,9.03-2.12c2.12-1.41,3.59-3.03,4.42-4.86l13.45,7.47c-.92,2.08-2.43,4.24-4.55,6.48-2.12,2.24-4.96,4.13-8.53,5.67-3.57,1.54-8.1,2.3-13.58,2.3ZM499.85,85.85h29.15c-.5-2.91-2.06-5.31-4.67-7.23-2.62-1.91-5.92-2.87-9.9-2.87s-7.12,1.02-9.65,3.05c-2.53,2.04-4.17,4.38-4.92,7.04Z"/>
        <path d="M552.04,125.08V37.89h15.7v48.08h2.99l16.44-22.67h17.19v.75l-19.93,28.28v2.24l21.92,29.77v.75h-17.94l-17.69-24.17h-2.99v24.17h-15.7Z"/>
      </g>
      <g>
        <polygon points="38.5 187.88 0 187.88 0 149.82 38.5 187.88"/>
        <rect y="62.41" width="43.02" height="42.69"/>
        <path d="M106.29,91.27v4.83c9.13,2.33,16.69,6.84,22.69,13.55,5.99,6.72,9,15.36,9,25.91v3.22c0,14.13-4.75,25.85-14.22,35.16-8.69,8.53-20.97,13.15-36.86,13.85v-39.29h-43.87v-42.21h43.87v-43.87h-43.87V18.54H0V0h82.41c18.07,0,31.86,4.66,41.34,13.96,9.47,9.3,14.22,20.93,14.22,34.89v3.22c0,10.74-3.01,19.33-9,25.77-6,6.44-13.56,10.91-22.69,13.43Z"/>
      </g>
    </g>
  </g>
</svg>