<?xml version="1.0" encoding="UTF-8"?>
<svg id="Layer_2" data-name="Layer 2" xmlns="http://www.w3.org/2000/svg" viewBox="0 0 137.97 187.88">
  <defs>
    <style>
      .cls-1 {
        fill: #fff;
      }
    </style>
  </defs>
  <g id="Layer_1-2" data-name="Layer 1">
    <g>
      <polygon class="cls-1" points="38.5 187.88 0 187.88 0 149.82 38.5 187.88"/>
      <rect class="cls-1" y="62.41" width="43.02" height="42.69"/>
      <path class="cls-1" d="M106.29,91.27v4.83c9.13,2.33,16.69,6.84,22.69,13.55,5.99,6.72,9,15.36,9,25.91v3.22c0,14.13-4.75,25.85-14.22,35.16-8.69,8.53-20.97,13.15-36.86,13.85v-39.29h-43.87v-42.21h43.87v-43.87h-43.87V18.54H0V0h82.41c18.07,0,31.86,4.66,41.34,13.96,9.47,9.3,14.22,20.93,14.22,34.89v3.22c0,10.74-3.01,19.33-9,25.77-6,6.44-13.56,10.91-22.69,13.43Z"/>
    </g>
  </g>
</svg>